<mxfile host="Electron" agent="Mozilla/5.0 (X11; Linux x86_64) AppleWebKit/537.36 (KHTML, like Gecko) draw.io/24.7.8 Chrome/128.0.6613.36 Electron/32.0.1 Safari/537.36" version="24.7.8">
  <diagram name="Page-1" id="ELzJ_Vvxag3bR47d5ZvK">
    <mxGraphModel dx="1368" dy="838" grid="0" gridSize="10" guides="1" tooltips="1" connect="0" arrows="1" fold="1" page="0" pageScale="1" pageWidth="850" pageHeight="1100" math="0" shadow="0">
      <root>
        <mxCell id="0" />
        <mxCell id="1" parent="0" />
        <mxCell id="aGBw4YBg2LCKrmhqB9TJ-1" value="&lt;b&gt;&lt;font style=&quot;font-size: 15px;&quot;&gt;Auth-service API&lt;/font&gt;&lt;/b&gt;" style="ellipse;shape=cloud;whiteSpace=wrap;html=1;" vertex="1" parent="1">
          <mxGeometry x="613" y="137.5" width="190" height="125" as="geometry" />
        </mxCell>
        <mxCell id="aGBw4YBg2LCKrmhqB9TJ-2" value="&lt;font style=&quot;font-size: 15px;&quot;&gt;&lt;b&gt;Product-service API&lt;/b&gt;&lt;/font&gt;" style="ellipse;shape=cloud;whiteSpace=wrap;html=1;" vertex="1" parent="1">
          <mxGeometry x="60" y="250" width="220" height="130" as="geometry" />
        </mxCell>
        <mxCell id="aGBw4YBg2LCKrmhqB9TJ-3" value="Client" style="ellipse;whiteSpace=wrap;html=1;" vertex="1" parent="1">
          <mxGeometry x="90" y="70" width="120" height="80" as="geometry" />
        </mxCell>
        <mxCell id="aGBw4YBg2LCKrmhqB9TJ-4" value="" style="endArrow=classic;html=1;rounded=0;exitX=0.5;exitY=1;exitDx=0;exitDy=0;entryX=0.4;entryY=0.1;entryDx=0;entryDy=0;entryPerimeter=0;" edge="1" parent="1" source="aGBw4YBg2LCKrmhqB9TJ-3" target="aGBw4YBg2LCKrmhqB9TJ-2">
          <mxGeometry width="50" height="50" relative="1" as="geometry">
            <mxPoint x="460" y="400" as="sourcePoint" />
            <mxPoint x="190" y="260" as="targetPoint" />
          </mxGeometry>
        </mxCell>
        <mxCell id="aGBw4YBg2LCKrmhqB9TJ-5" value="&lt;font style=&quot;font-size: 14px;&quot; color=&quot;#76db9d&quot;&gt;GET:&lt;span style=&quot;font-family: Consolas, monaco, monospace; font-size: 1em; text-wrap: nowrap; background-color: rgb(51, 51, 51); font-weight: 600; text-align: start;&quot;&gt;/api/v1/products&lt;/span&gt;&lt;/font&gt;" style="text;html=1;align=center;verticalAlign=middle;whiteSpace=wrap;rounded=0;" vertex="1" parent="1">
          <mxGeometry x="145" y="180" width="200" height="40" as="geometry" />
        </mxCell>
        <mxCell id="aGBw4YBg2LCKrmhqB9TJ-9" value="&lt;font style=&quot;font-size: 14px;&quot;&gt;verifies access token&lt;/font&gt;" style="text;html=1;align=center;verticalAlign=middle;whiteSpace=wrap;rounded=0;fontStyle=1" vertex="1" parent="1">
          <mxGeometry x="293" y="284" width="150" height="30" as="geometry" />
        </mxCell>
        <mxCell id="aGBw4YBg2LCKrmhqB9TJ-12" value="&lt;font style=&quot;font-size: 14px;&quot;&gt;validate token and return info about user&lt;/font&gt;" style="text;html=1;align=center;verticalAlign=middle;whiteSpace=wrap;rounded=0;fontStyle=1" vertex="1" parent="1">
          <mxGeometry x="280" y="325" width="196" height="25" as="geometry" />
        </mxCell>
        <mxCell id="aGBw4YBg2LCKrmhqB9TJ-13" value="" style="endArrow=classic;html=1;rounded=0;exitX=0.484;exitY=0.973;exitDx=0;exitDy=0;exitPerimeter=0;entryX=0.556;entryY=0;entryDx=0;entryDy=0;entryPerimeter=0;" edge="1" parent="1" source="aGBw4YBg2LCKrmhqB9TJ-37" target="aGBw4YBg2LCKrmhqB9TJ-15">
          <mxGeometry width="50" height="50" relative="1" as="geometry">
            <mxPoint x="460" y="400" as="sourcePoint" />
            <mxPoint x="638" y="420" as="targetPoint" />
          </mxGeometry>
        </mxCell>
        <mxCell id="aGBw4YBg2LCKrmhqB9TJ-15" value="&lt;b&gt;Postgres&lt;/b&gt;" style="shape=cylinder3;whiteSpace=wrap;html=1;boundedLbl=1;backgroundOutline=1;size=15;" vertex="1" parent="1">
          <mxGeometry x="679" y="475" width="90" height="110" as="geometry" />
        </mxCell>
        <mxCell id="aGBw4YBg2LCKrmhqB9TJ-17" value="" style="endArrow=classic;html=1;rounded=0;exitX=0.55;exitY=0.95;exitDx=0;exitDy=0;exitPerimeter=0;entryX=0.5;entryY=0;entryDx=0;entryDy=0;entryPerimeter=0;" edge="1" parent="1" source="aGBw4YBg2LCKrmhqB9TJ-2" target="aGBw4YBg2LCKrmhqB9TJ-20">
          <mxGeometry width="50" height="50" relative="1" as="geometry">
            <mxPoint x="460" y="400" as="sourcePoint" />
            <mxPoint x="210" y="440" as="targetPoint" />
          </mxGeometry>
        </mxCell>
        <mxCell id="aGBw4YBg2LCKrmhqB9TJ-20" value="" style="verticalLabelPosition=bottom;verticalAlign=top;html=1;shape=mxgraph.basic.diag_snip_rect;dx=6;whiteSpace=wrap;" vertex="1" parent="1">
          <mxGeometry x="130" y="454" width="100" height="120" as="geometry" />
        </mxCell>
        <mxCell id="aGBw4YBg2LCKrmhqB9TJ-22" value="&lt;b&gt;MongoDB&lt;/b&gt;" style="text;html=1;align=center;verticalAlign=middle;resizable=0;points=[];autosize=1;strokeColor=none;fillColor=none;" vertex="1" parent="1">
          <mxGeometry x="140" y="493" width="80" height="30" as="geometry" />
        </mxCell>
        <mxCell id="aGBw4YBg2LCKrmhqB9TJ-23" value="&lt;font style=&quot;font-size: 14px;&quot;&gt;&lt;font style=&quot;font-size: 14px;&quot; color=&quot;#76db9d&quot;&gt;GET:&lt;/font&gt;&lt;span style=&quot;color: rgb(162, 252, 162); font-family: Consolas, monaco, monospace; text-wrap: nowrap; background-color: rgb(51, 51, 51); font-weight: 600; text-align: start;&quot;&gt;/api/v1/auth/users/me&lt;/span&gt;&lt;/font&gt;" style="text;html=1;align=center;verticalAlign=middle;whiteSpace=wrap;rounded=0;" vertex="1" parent="1">
          <mxGeometry x="697" y="97.5" width="200" height="40" as="geometry" />
        </mxCell>
        <mxCell id="aGBw4YBg2LCKrmhqB9TJ-24" value="Client" style="ellipse;whiteSpace=wrap;html=1;" vertex="1" parent="1">
          <mxGeometry x="630" y="6" width="120" height="80" as="geometry" />
        </mxCell>
        <mxCell id="aGBw4YBg2LCKrmhqB9TJ-26" value="" style="endArrow=classic;html=1;rounded=0;exitX=0.5;exitY=1;exitDx=0;exitDy=0;entryX=0.4;entryY=0.1;entryDx=0;entryDy=0;entryPerimeter=0;" edge="1" parent="1" source="aGBw4YBg2LCKrmhqB9TJ-24" target="aGBw4YBg2LCKrmhqB9TJ-1">
          <mxGeometry width="50" height="50" relative="1" as="geometry">
            <mxPoint x="629.5" y="130" as="sourcePoint" />
            <mxPoint x="629.5" y="250" as="targetPoint" />
          </mxGeometry>
        </mxCell>
        <mxCell id="aGBw4YBg2LCKrmhqB9TJ-27" value="&lt;b&gt;&lt;font style=&quot;font-size: 14px;&quot;&gt;get data about product&lt;/font&gt;&lt;/b&gt;" style="text;html=1;align=center;verticalAlign=middle;whiteSpace=wrap;rounded=0;" vertex="1" parent="1">
          <mxGeometry x="185" y="392" width="110" height="40" as="geometry" />
        </mxCell>
        <mxCell id="aGBw4YBg2LCKrmhqB9TJ-28" value="&lt;b&gt;&lt;font style=&quot;font-size: 14px;&quot;&gt;get data about user&lt;/font&gt;&lt;/b&gt;" style="text;html=1;align=center;verticalAlign=middle;whiteSpace=wrap;rounded=0;" vertex="1" parent="1">
          <mxGeometry x="613" y="403" width="110" height="40" as="geometry" />
        </mxCell>
        <mxCell id="aGBw4YBg2LCKrmhqB9TJ-31" value="&lt;b&gt;&lt;font style=&quot;font-size: 15px;&quot;&gt;gRPC&lt;/font&gt;&lt;/b&gt;" style="shape=hexagon;perimeter=hexagonPerimeter2;whiteSpace=wrap;html=1;fixedSize=1;" vertex="1" parent="1">
          <mxGeometry x="493" y="275" width="120" height="80" as="geometry" />
        </mxCell>
        <mxCell id="aGBw4YBg2LCKrmhqB9TJ-33" value="" style="endArrow=classic;startArrow=classic;html=1;rounded=0;entryX=0;entryY=0.5;entryDx=0;entryDy=0;exitX=0.875;exitY=0.5;exitDx=0;exitDy=0;exitPerimeter=0;" edge="1" parent="1" source="aGBw4YBg2LCKrmhqB9TJ-2" target="aGBw4YBg2LCKrmhqB9TJ-31">
          <mxGeometry width="50" height="50" relative="1" as="geometry">
            <mxPoint x="437" y="351" as="sourcePoint" />
            <mxPoint x="487" y="301" as="targetPoint" />
          </mxGeometry>
        </mxCell>
        <mxCell id="aGBw4YBg2LCKrmhqB9TJ-35" value="" style="endArrow=classic;html=1;rounded=0;entryX=0.049;entryY=0.507;entryDx=0;entryDy=0;entryPerimeter=0;exitX=1;exitY=0.5;exitDx=0;exitDy=0;" edge="1" parent="1" source="aGBw4YBg2LCKrmhqB9TJ-31" target="aGBw4YBg2LCKrmhqB9TJ-37">
          <mxGeometry width="50" height="50" relative="1" as="geometry">
            <mxPoint x="383" y="351" as="sourcePoint" />
            <mxPoint x="433" y="301" as="targetPoint" />
          </mxGeometry>
        </mxCell>
        <mxCell id="aGBw4YBg2LCKrmhqB9TJ-37" value="&lt;b&gt;&lt;font style=&quot;font-size: 15px;&quot;&gt;Auth-service Logic&lt;/font&gt;&lt;/b&gt;" style="shape=parallelogram;perimeter=parallelogramPerimeter;whiteSpace=wrap;html=1;fixedSize=1;" vertex="1" parent="1">
          <mxGeometry x="639" y="298" width="184" height="73" as="geometry" />
        </mxCell>
        <mxCell id="aGBw4YBg2LCKrmhqB9TJ-38" value="" style="endArrow=classic;html=1;rounded=0;exitX=0.532;exitY=0.956;exitDx=0;exitDy=0;exitPerimeter=0;" edge="1" parent="1" source="aGBw4YBg2LCKrmhqB9TJ-1">
          <mxGeometry width="50" height="50" relative="1" as="geometry">
            <mxPoint x="413" y="340" as="sourcePoint" />
            <mxPoint x="714" y="295" as="targetPoint" />
          </mxGeometry>
        </mxCell>
      </root>
    </mxGraphModel>
  </diagram>
</mxfile>
